<svg width="35" height="31" viewBox="0 0 35 31" fill="none" xmlns="http://www.w3.org/2000/svg">
<path d="M4.74318 30.8785C4.74318 30.8785 4.71145 30.9115 5.47423 30.9115C6.4234 30.9115 14.2679 30.901 14.2679 30.901V22.5078C14.2679 22.5078 14.1569 22.5078 15.3083 22.5078H18.9583C20.3212 22.5078 20.2221 22.5078 20.2221 22.5078V30.8785C20.2221 30.8785 27.6621 30.8785 28.8307 30.8785C29.7984 30.8785 29.7547 30.8785 29.7547 30.8785V16.6198L17.6217 5.82861L4.74318 16.6211L4.74318 30.8785Z" fill="white"/>
<path d="M0 15.6164C0 15.6164 1.86542e-05 15.6164 1.47112 17.0061L17.7302 3.55873L32.6453 16.8023C34.8866 15.541 34.8866 15.541 34.8866 15.541L17.7302 0L0 15.6164Z" fill="white"/>
</svg>
