<svg width="37" height="37" viewBox="0 0 37 37" fill="none" xmlns="http://www.w3.org/2000/svg">
<path d="M5.90216 20.3217H25.9308C26.8856 20.3217 27.6596 19.4119 27.6596 18.2896C27.6596 17.1673 26.8856 16.2574 25.9308 16.2574H5.90216L8.13732 13.63C8.81245 12.8364 8.81245 11.5497 8.13732 10.7561C7.4623 9.96248 6.36766 9.96248 5.69253 10.7561L0.506522 16.8524C0.46607 16.9 0.427807 16.9499 0.391618 17.0019C0.375829 17.0245 0.362114 17.0485 0.347247 17.0716C0.328231 17.1015 0.308639 17.1306 0.291005 17.1616C0.27487 17.1899 0.260925 17.2193 0.246173 17.2483C0.231998 17.2762 0.21713 17.3034 0.204107 17.3322C0.190508 17.362 0.179098 17.3926 0.166881 17.4229C0.154896 17.4526 0.142333 17.4819 0.131615 17.5122C0.121243 17.5419 0.112714 17.5721 0.103609 17.6022C0.0935827 17.6347 0.0829797 17.6668 0.0744513 17.7C0.0667295 17.7301 0.0610823 17.7605 0.0546283 17.791C0.0473676 17.8248 0.0393001 17.8584 0.0335376 17.8928C0.0276599 17.9279 0.0240872 17.9634 0.0198229 17.9987C0.0161349 18.0289 0.0111792 18.0587 0.00864372 18.0894C0.00311174 18.1549 0.000230499 18.2209 0.00011525 18.2867C0.00011525 18.2877 0 18.2888 0 18.2897C0 18.2907 0.00011525 18.2918 0.00011525 18.2927C0.000230499 18.3587 0.00311174 18.4245 0.00864372 18.4902C0.0111792 18.5204 0.0160197 18.5498 0.0195924 18.5798C0.0239719 18.6155 0.0275447 18.6513 0.0335376 18.6868C0.0393001 18.7209 0.0472524 18.754 0.0545131 18.7875C0.0610823 18.8182 0.0668448 18.8492 0.0746818 18.8797C0.083095 18.9124 0.0935827 18.9439 0.103264 18.9759C0.112599 19.0065 0.121127 19.0373 0.13173 19.0674C0.142218 19.0972 0.15455 19.1258 0.166305 19.1549C0.178752 19.1859 0.190508 19.2172 0.204338 19.2477C0.217015 19.2755 0.231421 19.3019 0.245136 19.3288C0.260234 19.3588 0.27464 19.389 0.291236 19.4181C0.308062 19.4478 0.326848 19.4756 0.344942 19.5041C0.360616 19.5287 0.375138 19.554 0.391849 19.5778C0.426308 19.6272 0.462843 19.6744 0.50099 19.7198C0.502834 19.722 0.504332 19.7244 0.506176 19.7266L5.69241 25.8232C6.03009 26.22 6.47242 26.4185 6.91486 26.4185C7.35719 26.4184 7.79975 26.22 8.1372 25.8233C8.81233 25.0297 8.81233 23.7431 8.13732 22.9495L5.90216 20.3217Z" fill="white"/>
<path d="M35.1513 0H13.2538C12.2991 0 11.5251 0.909865 11.5251 2.03216V10.1608C11.5251 11.2831 12.2991 12.1929 13.2538 12.1929C14.2085 12.1929 14.9826 11.2831 14.9826 10.1608V4.06432H33.4225V32.5147H14.9826V26.418C14.9826 25.2958 14.2085 24.3859 13.2538 24.3859C12.2991 24.3859 11.5251 25.2958 11.5251 26.418V34.5468C11.5251 35.6691 12.2991 36.579 13.2538 36.579H35.1513C36.106 36.579 36.88 35.6691 36.88 34.5468V2.03216C36.88 0.909865 36.106 0 35.1513 0Z" fill="white"/>
</svg>
