<svg width="37" height="37" viewBox="0 0 37 37" fill="none" xmlns="http://www.w3.org/2000/svg">
<path d="M37 14.0952H22.9048V1.02587e-05C18.5 3.56824e-06 20.8944 6.88869e-06 18.5 6.88869e-06C16.1056 6.88869e-06 17.9803 6.43027e-06 14.0952 0V14.0952H1.11508e-06C-2.97354e-07 18.5 3.96471e-07 16.1056 3.96471e-07 18.5C3.96471e-07 20.8944 2.73128e-07 18.5 0 22.9048H14.0952V37C18.5 37 16.1056 37 18.5 37C20.8944 37 18.5 37 22.5534 37L22.9048 22.9048H37C37 18.5 37 20.8944 37 18.5C37 16.1056 37 18.5 37 14.0952Z" fill="white"/>
</svg>
