<svg width="24" height="25" viewBox="0 0 24 25" fill="none" xmlns="http://www.w3.org/2000/svg">
<path d="M23.7034 23.2181L16.9525 16.0343C18.2834 14.337 19.0839 12.168 19.0839 9.799C19.0839 4.39442 14.9128 0 9.78205 0C4.65134 0 0.470581 4.39955 0.470581 9.80412C0.470581 15.2087 4.64169 19.6031 9.7724 19.6031C11.952 19.6031 13.958 18.8083 15.5493 17.4803L22.3243 24.6846C22.7197 25.1051 23.308 25.1051 23.7034 24.6846C24.0988 24.2642 24.0988 23.6386 23.7034 23.2181ZM2.44764 9.80412C2.44764 5.5584 5.73631 2.10748 9.7724 2.10748C13.8085 2.10748 17.0972 5.5584 17.0972 9.80412C17.0972 14.0498 13.8085 17.5008 9.7724 17.5008C5.73631 17.5008 2.44764 14.0447 2.44764 9.80412Z" fill="white"/>
</svg>
