<svg width="41" height="41" viewBox="0 0 41 41" fill="none" xmlns="http://www.w3.org/2000/svg">
<path d="M37.2905 23.1483L37.3002 23.1529C37.45 22.288 37.5225 21.4048 37.5225 20.5308C37.5225 19.7482 37.4597 18.9611 37.3437 18.1923C37.4597 18.9566 37.5177 19.7299 37.5177 20.5033C37.5177 21.3911 37.4404 22.2788 37.2905 23.1483ZM0.541393 15.2956C0.517226 15.2773 0.497892 15.259 0.473724 15.2362C0.507559 15.2682 0.541394 15.3002 0.580062 15.3323L3.74601 17.8903V17.8857L0.541393 15.2956ZM26.478 5.41118H26.4828L25.7336 1.57637C25.7239 1.53061 25.7143 1.48943 25.6998 1.44824C25.7046 1.47112 25.7143 1.49858 25.7191 1.52146L26.478 5.41118ZM29.0881 30.4198L30.6058 29.2392L35.0913 30.7447C35.913 29.6968 36.6042 28.571 37.1504 27.3767L33.5397 24.4525L33.8587 22.6175C33.9796 21.9265 34.0424 21.2172 34.0424 20.5079C34.0424 19.7986 33.9796 19.0893 33.8587 18.3983L33.5446 16.5724L37.1552 13.6482C36.6042 12.4584 35.9178 11.3281 35.0961 10.2802L30.6106 11.7857L29.0929 10.6051C27.9377 9.70818 26.6471 9.00345 25.2599 8.50923L23.4184 7.85484L22.5532 3.41598C21.188 3.26955 19.8098 3.26955 18.4447 3.41598L17.5795 7.86399L15.7476 8.51838C14.37 9.01261 13.0892 9.71733 11.9436 10.6097L10.4259 11.7949L5.91142 10.2756C5.08972 11.3236 4.39853 12.4493 3.85234 13.6437L7.50164 16.5953L7.18746 18.4257C7.06662 19.1076 7.00862 19.8077 7.00862 20.5079C7.00862 21.2034 7.07146 21.9082 7.18746 22.59L7.50164 24.4205L3.85234 27.3721C4.40336 28.5619 5.08972 29.6922 5.91142 30.7401L10.4259 29.2208L11.9436 30.4061C13.0892 31.2984 14.37 32.0031 15.7476 32.4974L17.5747 33.1609L18.4399 37.6089C19.8029 37.7554 21.1901 37.7554 22.5483 37.6089L23.4135 33.1701L25.2551 32.5157C26.6471 32.0214 27.9329 31.3167 29.0881 30.4198V30.4198ZM20.5279 28.118C19.0537 28.118 17.6665 27.7611 16.4533 27.1341C13.7997 25.7704 11.9968 23.1117 11.9968 20.0503C11.9968 15.6022 15.8056 11.9962 20.5038 11.9962C23.7374 11.9962 26.5456 13.7032 27.986 16.2155C28.6482 17.3595 29.0252 18.6728 29.0252 20.0731C29.0252 24.5166 25.2213 28.118 20.5279 28.118V28.118ZM5.77124 34.2729C5.5054 34.3599 5.22989 34.3782 4.96888 34.3278C5.24439 34.3827 5.5344 34.3736 5.81475 34.2821L9.74922 32.955C9.74438 32.9504 9.73472 32.9458 9.72988 32.9413L5.77124 34.2729V34.2729ZM40.4565 15.2956L37.2905 17.8583C37.2905 17.8674 37.2954 17.8812 37.2954 17.8903L40.4565 15.3323C40.7996 15.0531 40.993 14.6504 40.9978 14.234C40.9833 14.6367 40.79 15.0257 40.4565 15.2956Z" fill="white"/>
<path d="M40.9881 26.6672C41.0123 26.8823 40.9881 27.102 40.9059 27.3125L40.8624 27.4315C39.9887 29.7367 38.6838 31.8743 37.0101 33.742L36.9231 33.8381C36.7204 34.065 36.4495 34.2281 36.1464 34.3057C35.8434 34.3834 35.5226 34.3719 35.2266 34.2728L31.2969 32.9503C29.8553 34.0747 28.2269 34.9654 26.4779 35.5861L25.7191 39.4759C25.6618 39.7685 25.5119 40.0378 25.2891 40.2479C25.0664 40.4579 24.7814 40.5989 24.472 40.6519L24.3415 40.6748C23.0783 40.891 21.7971 40.9997 20.5134 40.9997H20.5279C21.8184 40.9997 23.109 40.8899 24.3657 40.6748L24.4962 40.6519C24.8056 40.5989 25.0905 40.4579 25.3133 40.2479C25.536 40.0378 25.686 39.7685 25.7432 39.4759L26.5021 35.5907C28.2518 34.9684 29.8662 34.0852 31.3163 32.9594L35.2411 34.2819C35.5371 34.381 35.8579 34.3925 36.1609 34.3149C36.464 34.2372 36.7349 34.0741 36.9376 33.8472L37.0246 33.7511C38.7067 31.8703 39.9973 29.7516 40.8721 27.4498L40.9156 27.3308C40.993 27.1157 41.0171 26.8869 40.9881 26.6672V26.6672Z" fill="white"/>
<path d="M29.0106 20.0503C29.0106 18.6638 28.6384 17.355 27.9859 16.2155C26.5455 13.7032 23.7373 11.9963 20.5037 11.9963C15.8055 11.9963 11.9967 15.6023 11.9967 20.0503C11.9967 23.1118 13.7996 25.7705 16.4532 27.1342C17.6567 27.752 19.0343 28.1044 20.5037 28.1044C25.2018 28.1044 29.0106 24.4984 29.0106 20.0503ZM15.0901 20.0503C15.0901 18.6821 15.6557 17.3962 16.6755 16.426C17.7002 15.4559 19.0584 14.9251 20.5037 14.9251C21.9489 14.9251 23.3071 15.4559 24.3318 16.426C24.8353 16.9014 25.2346 17.4663 25.5067 18.0883C25.7788 18.7103 25.9183 19.3771 25.9172 20.0503C25.9172 21.4186 25.3517 22.7045 24.3318 23.6747C23.8297 24.1514 23.233 24.5294 22.576 24.787C21.919 25.0446 21.2148 25.1767 20.5037 25.1756C19.0584 25.1756 17.7002 24.6402 16.6755 23.6747C16.172 23.1993 15.7727 22.6344 15.5006 22.0124C15.2285 21.3904 15.089 20.7236 15.0901 20.0503V20.0503Z" fill="#4F4FED"/>
<path d="M24.472 40.6522C24.7814 40.5991 25.0664 40.4582 25.2891 40.2481C25.5119 40.0381 25.6618 39.7688 25.7191 39.4761L26.4779 35.5864C28.2269 34.9657 29.8553 34.075 31.2969 32.9505L35.2266 34.273C35.5225 34.3721 35.8434 34.3836 36.1464 34.306C36.4494 34.2283 36.7203 34.0652 36.9231 33.8383L37.0101 33.7422C38.6922 31.8614 39.9876 29.7381 40.8624 27.4317L40.9059 27.3127C40.9881 27.1022 41.0123 26.8826 40.9881 26.6675C40.9446 26.306 40.7609 25.9628 40.4564 25.7111L37.3001 23.153L37.2905 23.1484C37.4403 22.279 37.5176 21.3912 37.5176 20.5034C37.5176 19.73 37.4596 18.9521 37.3436 18.1925C37.3291 18.0918 37.3098 17.9911 37.2953 17.8904C37.2953 17.8813 37.2905 17.8676 37.2905 17.8584L40.4564 15.2958C40.7899 15.0258 40.9833 14.6368 40.9978 14.2341C41.0026 14.0511 40.9736 13.8634 40.9059 13.685L40.8624 13.566C39.9908 11.2597 38.6857 9.12179 37.0101 7.25548L36.9231 7.15938C36.7199 6.9331 36.4489 6.77044 36.1461 6.69283C35.8432 6.61522 35.5226 6.62632 35.2266 6.72465L31.2969 8.04715C29.8469 6.92142 28.2325 6.03365 26.4828 5.41129H26.4779L25.7191 1.52157C25.7142 1.49869 25.7094 1.47123 25.6997 1.44835C25.63 1.17167 25.4768 0.920153 25.2588 0.724364C25.0409 0.528574 24.7675 0.396952 24.472 0.345499L24.3415 0.322618C21.8233 -0.107539 19.1745 -0.107539 16.6563 0.322618L16.5257 0.345499C16.2164 0.398567 15.9314 0.539496 15.7087 0.749562C15.4859 0.959629 15.336 1.22889 15.2787 1.52157L14.515 5.4296C12.7792 6.05208 11.1628 6.93938 9.72985 8.0563L5.77121 6.72465C5.47523 6.62554 5.15441 6.61404 4.85137 6.6917C4.54833 6.76935 4.27743 6.93247 4.07465 7.15938L3.98765 7.25548C2.31403 9.12311 1.00913 11.2607 0.135348 13.566L0.0918462 13.685C-0.00887867 13.9509 -0.0264288 14.2387 0.0413005 14.5139C0.10903 14.7891 0.259163 15.0399 0.473693 15.2363C0.49786 15.2546 0.517194 15.2775 0.541362 15.2958L3.74597 17.8859V17.8904C3.59613 18.7508 3.52363 19.6248 3.52363 20.4988C3.52363 21.3775 3.59613 22.2561 3.74597 23.1118L0.541362 25.7019C0.302566 25.8955 0.131657 26.1532 0.0513608 26.441C-0.0289356 26.7287 -0.0148147 27.0328 0.0918462 27.3127L0.135348 27.4317C1.01021 29.7381 2.30559 31.866 3.98765 33.7422L4.07465 33.8383C4.31149 34.0991 4.62567 34.2685 4.96885 34.328C5.22986 34.3737 5.50537 34.36 5.77121 34.273L9.72985 32.9414C9.73468 32.946 9.74435 32.9505 9.74918 32.9551C11.1847 34.0671 12.7846 34.9503 14.515 35.5681L15.2787 39.4761C15.336 39.7688 15.4859 40.0381 15.7087 40.2481C15.9314 40.4582 16.2164 40.5991 16.5257 40.6522L16.6563 40.6751C17.9178 40.8901 19.2083 41 20.4989 41H20.5134C21.7991 41 23.0896 40.8901 24.3415 40.6751L24.472 40.6522V40.6522ZM22.5483 37.6091C21.1832 37.7555 19.8049 37.7555 18.4398 37.6091L17.5746 33.161L15.7476 32.4975C14.37 32.0033 13.0891 31.2985 11.9436 30.4062L10.4259 29.221L5.91138 30.7403C5.08969 29.6923 4.40333 28.562 3.85231 27.3722L7.5016 24.4206L7.18743 22.5901C7.07142 21.9083 7.00859 21.2036 7.00859 20.508C7.00859 19.8078 7.06659 19.1077 7.18743 18.4258L7.5016 16.5954L3.85231 13.6438C4.3985 12.4494 5.08969 11.3237 5.91138 10.2757L10.4259 11.795L11.9436 10.6098C13.0891 9.71744 14.37 9.01272 15.7476 8.51849L17.5795 7.8641L18.4446 3.41609C19.8029 3.26966 21.1901 3.26966 22.5531 3.41609L23.4183 7.85495L25.2599 8.50934C26.6471 9.00357 27.9376 9.70829 29.0929 10.6052L30.6106 11.7859L35.0961 10.2803C35.9178 11.3282 36.6041 12.4586 37.1551 13.6484L33.5445 16.5725L33.8587 18.3984C33.9795 19.0894 34.0424 19.7987 34.0424 20.508C34.0424 21.2173 33.9795 21.9266 33.8587 22.6176L33.5397 24.4526L37.1503 27.3768C36.6029 28.5707 35.912 29.7008 35.0912 30.7448L30.6057 29.2393L29.088 30.4199C27.9328 31.3168 26.6471 32.0216 25.2551 32.5158L23.4135 33.1702L22.5483 37.6091V37.6091Z" fill="#4F4FED"/>
</svg>
